<svg
xmlns="http://www.w3.org/2000/svg"
xmlns:xlink="http://www.w3.org/1999/xlink"
width="48"
height="48"
viewBox="0 0 48 48">
  <defs>
    <symbol id="Icon-paintCar">
        
  <title class="" style="">Icon</title>
  <g class="" style="">
    <rect x="7" y="26" width="3" height="2"  class="" style=""/>
    <rect x="2" y="26" width="3" height="2"  class="" style=""/>
    <rect x="8.13" y="29.75" width="3" height="2" transform="translate(-14.083 8.933) rotate(-29.995)"  class="" style=""/>
    <rect x="3.799" y="32.25" width="3" height="2" transform="translate(-15.913 7.102) rotate(-29.995)"  class="" style=""/>
    <rect x="8.629" y="21.75" width="2" height="3" transform="translate(-15.32 19.962) rotate(-59.995)"  class="" style=""/>
    <rect x="4.299" y="19.25" width="2" height="3" transform="translate(-15.321 14.964) rotate(-60)"  class="" style=""/>
    <path d="M44,23v3H42V24a1,1,0,0,0-1-1H30V21.351l3.781-4.726A1,1,0,0,0,34,16V5a1,1,0,0,0-1-1H21a1,1,0,0,0-1,1V16a1,1,0,0,0,.219.625L24,21.351V23H18a1.021,1.021,0,0,0-.243.03l-4,1A1,1,0,0,0,13,25v4a1,1,0,0,0,.757.97l4,1A0.973,0.973,0,0,0,18,31h6v9h2V30a1,1,0,0,0-1-1H18.123L15,28.219V25.781L18.123,25H25a1,1,0,0,0,1-1V21a1,1,0,0,0-.219-0.625L22.28,16H31.72l-3.5,4.375A1,1,0,0,0,28,21v3a1,1,0,0,0,1,1H40v4.181l-4.2.839a1,1,0,0,0-.727,1.365L39.5,42H35.644L30.91,31.586A1,1,0,0,0,30,31H28v2h1.356L34.09,43.414A1,1,0,0,0,35,44h6a1,1,0,0,0,.923-1.385L37.392,31.741l3.8-.761A1,1,0,0,0,42,30V28h2v3h2V23H44ZM22,6H32v8H22V6Z"  class="" style=""/>
  </g>

    </symbol>
  </defs>
    <view id="default" viewBox="0 0 48 48"></view>
    <use data-variant="default" xlink:href="#Icon-paintCar" x="0" y="0" fill="#004346" />
    <view id="primary" viewBox="0 48 48 48"></view>
    <use data-variant="primary" xlink:href="#Icon-paintCar" x="0" y="48" fill="#FFCD05" />
    <view id="secondary" viewBox="0 96 48 48"></view>
    <use data-variant="secondary" xlink:href="#Icon-paintCar" x="0" y="96" fill="#478081" />
    <view id="dark" viewBox="0 144 48 48"></view>
    <use data-variant="dark" xlink:href="#Icon-paintCar" x="0" y="144" fill="#004346" />
    <view id="light" viewBox="0 192 48 48"></view>
    <use data-variant="light" xlink:href="#Icon-paintCar" x="0" y="192" fill="#FFFFFF" />
    <view id="correct" viewBox="0 240 48 48"></view>
    <use data-variant="correct" xlink:href="#Icon-paintCar" x="0" y="240" fill="#00928A" />
    <view id="error" viewBox="0 288 48 48"></view>
    <use data-variant="error" xlink:href="#Icon-paintCar" x="0" y="288" fill="#BD1903" />
    <view id="text" viewBox="0 336 48 48"></view>
    <use data-variant="text" xlink:href="#Icon-paintCar" x="0" y="336" fill="#000000" />
    <view id="neutral" viewBox="0 384 48 48"></view>
    <use data-variant="neutral" xlink:href="#Icon-paintCar" x="0" y="384" fill="#F5F3F1" />
    <view id="highlight" viewBox="0 432 48 48"></view>
    <use data-variant="highlight" xlink:href="#Icon-paintCar" x="0" y="432" fill="#FF6400" />
    <view id="border" viewBox="0 480 48 48"></view>
    <use data-variant="border" xlink:href="#Icon-paintCar" x="0" y="480" fill="#cdcbc3" />
    <view id="disabled" viewBox="0 528 48 48"></view>
    <use data-variant="disabled" xlink:href="#Icon-paintCar" x="0" y="528" fill="#737373" />
</svg>
