<svg
xmlns="http://www.w3.org/2000/svg"
xmlns:xlink="http://www.w3.org/1999/xlink"
width="48"
height="48"
viewBox="0 0 48 48">
  <defs>
    <symbol id="Icon-news">
        
  <title class="" style="">Icon</title>
  <g class="" style="">
    <path d="M41.707,10.293A1,1,0,0,0,41,10H13a1,1,0,0,0-1,1V34c0,1.44-.561,2-2,2s-2-.56-2-2V14h2V12H7a1,1,0,0,0-1,1V34a3.641,3.641,0,0,0,4,4H38a3.641,3.641,0,0,0,4-4V11A1,1,0,0,0,41.707,10.293ZM40,34c0,1.44-.561,2-2,2H13.588A4.7,4.7,0,0,0,14,34V12H40V34Z"  class="" style=""/>
    <rect x="28" y="24" width="10" height="2"  class="" style=""/>
    <rect x="28" y="28" width="10" height="2"  class="" style=""/>
    <rect x="28" y="32" width="10" height="2"  class="" style=""/>
    <path d="M17,34h8a1,1,0,0,0,1-1V25a1,1,0,0,0-1-1H17a1,1,0,0,0-1,1v8A1,1,0,0,0,17,34Zm1-8h6v6H18V26Z"  class="" style=""/>
    <path d="M17,22H37a1,1,0,0,0,1-1V15a1,1,0,0,0-1-1H17a1,1,0,0,0-1,1v6A1,1,0,0,0,17,22Zm1-6H36v4H18V16Z"  class="" style=""/>
  </g>

    </symbol>
  </defs>
    <view id="default" viewBox="0 0 48 48"></view>
    <use data-variant="default" xlink:href="#Icon-news" x="0" y="0" fill="#004346" />
    <view id="primary" viewBox="0 48 48 48"></view>
    <use data-variant="primary" xlink:href="#Icon-news" x="0" y="48" fill="#FFCD05" />
    <view id="secondary" viewBox="0 96 48 48"></view>
    <use data-variant="secondary" xlink:href="#Icon-news" x="0" y="96" fill="#478081" />
    <view id="dark" viewBox="0 144 48 48"></view>
    <use data-variant="dark" xlink:href="#Icon-news" x="0" y="144" fill="#004346" />
    <view id="light" viewBox="0 192 48 48"></view>
    <use data-variant="light" xlink:href="#Icon-news" x="0" y="192" fill="#FFFFFF" />
    <view id="correct" viewBox="0 240 48 48"></view>
    <use data-variant="correct" xlink:href="#Icon-news" x="0" y="240" fill="#00928A" />
    <view id="error" viewBox="0 288 48 48"></view>
    <use data-variant="error" xlink:href="#Icon-news" x="0" y="288" fill="#BD1903" />
    <view id="text" viewBox="0 336 48 48"></view>
    <use data-variant="text" xlink:href="#Icon-news" x="0" y="336" fill="#000000" />
    <view id="neutral" viewBox="0 384 48 48"></view>
    <use data-variant="neutral" xlink:href="#Icon-news" x="0" y="384" fill="#F5F3F1" />
    <view id="highlight" viewBox="0 432 48 48"></view>
    <use data-variant="highlight" xlink:href="#Icon-news" x="0" y="432" fill="#FF6400" />
    <view id="border" viewBox="0 480 48 48"></view>
    <use data-variant="border" xlink:href="#Icon-news" x="0" y="480" fill="#cdcbc3" />
    <view id="disabled" viewBox="0 528 48 48"></view>
    <use data-variant="disabled" xlink:href="#Icon-news" x="0" y="528" fill="#737373" />
</svg>
