<svg
xmlns="http://www.w3.org/2000/svg"
xmlns:xlink="http://www.w3.org/1999/xlink"
width="48"
height="48"
viewBox="0 0 48 48">
  <defs>
    <symbol id="Icon-loyalty">
        
  <title class="" style="">Icon</title>
  <g class="" style="">
    <path d="M24,8a4,4,0,1,1-4,4,4,4,0,0,1,4-4m0-2a6,6,0,1,0,6,6,6,6,0,0,0-6-6h0Z"  class="" style=""/>
    <path d="M19,22H29a4.6,4.6,0,0,1,4.908,4.086A7.133,7.133,0,0,1,34.951,26a7.253,7.253,0,0,1,.982.074A6.624,6.624,0,0,0,29,20H19c-5.537,0-7,4.579-7,7V38a1,1,0,0,0,.553.895L16,40.618V42h2V40a1,1,0,0,0-.553-0.895L14,37.382V27C14,26.8,14.057,22,19,22Z"  class="" style=""/>
    <path d="M32,42a1,1,0,0,1-.691-0.277s-4.189-4.006-5.687-5.4A4.819,4.819,0,0,1,24,32.8,4.933,4.933,0,0,1,29.048,28,5.229,5.229,0,0,1,32,28.929,5.222,5.222,0,0,1,34.951,28,4.934,4.934,0,0,1,40,32.8a4.824,4.824,0,0,1-1.621,3.52c-1.5,1.4-5.687,5.4-5.687,5.4A1,1,0,0,1,32,42ZM29.048,30A2.934,2.934,0,0,0,26,32.8a2.848,2.848,0,0,0,.985,2.058C28.11,35.9,30.744,38.417,32,39.617c1.256-1.2,3.889-3.712,5.014-4.761A2.85,2.85,0,0,0,38,32.8,2.935,2.935,0,0,0,34.951,30a3.447,3.447,0,0,0-2.283.94,1,1,0,0,1-1.336,0A3.45,3.45,0,0,0,29.048,30Z"  class="" style=""/>
  </g>

    </symbol>
  </defs>
    <view id="default" viewBox="0 0 48 48"></view>
    <use data-variant="default" xlink:href="#Icon-loyalty" x="0" y="0" fill="#004346" />
    <view id="primary" viewBox="0 48 48 48"></view>
    <use data-variant="primary" xlink:href="#Icon-loyalty" x="0" y="48" fill="#FFCD05" />
    <view id="secondary" viewBox="0 96 48 48"></view>
    <use data-variant="secondary" xlink:href="#Icon-loyalty" x="0" y="96" fill="#478081" />
    <view id="dark" viewBox="0 144 48 48"></view>
    <use data-variant="dark" xlink:href="#Icon-loyalty" x="0" y="144" fill="#004346" />
    <view id="light" viewBox="0 192 48 48"></view>
    <use data-variant="light" xlink:href="#Icon-loyalty" x="0" y="192" fill="#FFFFFF" />
    <view id="correct" viewBox="0 240 48 48"></view>
    <use data-variant="correct" xlink:href="#Icon-loyalty" x="0" y="240" fill="#00928A" />
    <view id="error" viewBox="0 288 48 48"></view>
    <use data-variant="error" xlink:href="#Icon-loyalty" x="0" y="288" fill="#BD1903" />
    <view id="text" viewBox="0 336 48 48"></view>
    <use data-variant="text" xlink:href="#Icon-loyalty" x="0" y="336" fill="#000000" />
    <view id="neutral" viewBox="0 384 48 48"></view>
    <use data-variant="neutral" xlink:href="#Icon-loyalty" x="0" y="384" fill="#F5F3F1" />
    <view id="highlight" viewBox="0 432 48 48"></view>
    <use data-variant="highlight" xlink:href="#Icon-loyalty" x="0" y="432" fill="#FF6400" />
    <view id="border" viewBox="0 480 48 48"></view>
    <use data-variant="border" xlink:href="#Icon-loyalty" x="0" y="480" fill="#cdcbc3" />
    <view id="disabled" viewBox="0 528 48 48"></view>
    <use data-variant="disabled" xlink:href="#Icon-loyalty" x="0" y="528" fill="#737373" />
</svg>
