<svg
xmlns="http://www.w3.org/2000/svg"
xmlns:xlink="http://www.w3.org/1999/xlink"
width="48"
height="48"
viewBox="0 0 48 48">
  <defs>
    <symbol id="Icon-picture">
        
  <title class="" style="">Icon</title>
  <g class="" style="">
    <path d="M43,13H40V10a1,1,0,0,0-1-1H5a1,1,0,0,0-1,1V34a1,1,0,0,0,1,1H8v3a1,1,0,0,0,1,1H43a1,1,0,0,0,1-1V14A1,1,0,0,0,43,13Zm-5-2V33H35.492l-9.7-12.61A1,1,0,0,0,25.01,20H25a1,1,0,0,0-.781.375l-3.146,3.932-5.241-7.862A0.979,0.979,0,0,0,14.949,16a1,1,0,0,0-.833.531L6,31.863V11H38ZM32.969,33H7.661L15.1,18.951l5.069,7.6a1,1,0,0,0,1.613.07l3.2-4ZM42,37H10V35H39a1,1,0,0,0,1-1V15h2V37Z"  class="" style=""/>
    <circle cx="33" cy="16" r="3"  class="" style=""/>
  </g>

    </symbol>
  </defs>
    <view id="default" viewBox="0 0 48 48"></view>
    <use data-variant="default" xlink:href="#Icon-picture" x="0" y="0" fill="#004346" />
    <view id="primary" viewBox="0 48 48 48"></view>
    <use data-variant="primary" xlink:href="#Icon-picture" x="0" y="48" fill="#FFCD05" />
    <view id="secondary" viewBox="0 96 48 48"></view>
    <use data-variant="secondary" xlink:href="#Icon-picture" x="0" y="96" fill="#478081" />
    <view id="dark" viewBox="0 144 48 48"></view>
    <use data-variant="dark" xlink:href="#Icon-picture" x="0" y="144" fill="#004346" />
    <view id="light" viewBox="0 192 48 48"></view>
    <use data-variant="light" xlink:href="#Icon-picture" x="0" y="192" fill="#FFFFFF" />
    <view id="correct" viewBox="0 240 48 48"></view>
    <use data-variant="correct" xlink:href="#Icon-picture" x="0" y="240" fill="#00928A" />
    <view id="error" viewBox="0 288 48 48"></view>
    <use data-variant="error" xlink:href="#Icon-picture" x="0" y="288" fill="#BD1903" />
    <view id="text" viewBox="0 336 48 48"></view>
    <use data-variant="text" xlink:href="#Icon-picture" x="0" y="336" fill="#000000" />
    <view id="neutral" viewBox="0 384 48 48"></view>
    <use data-variant="neutral" xlink:href="#Icon-picture" x="0" y="384" fill="#F5F3F1" />
    <view id="highlight" viewBox="0 432 48 48"></view>
    <use data-variant="highlight" xlink:href="#Icon-picture" x="0" y="432" fill="#FF6400" />
    <view id="border" viewBox="0 480 48 48"></view>
    <use data-variant="border" xlink:href="#Icon-picture" x="0" y="480" fill="#cdcbc3" />
    <view id="disabled" viewBox="0 528 48 48"></view>
    <use data-variant="disabled" xlink:href="#Icon-picture" x="0" y="528" fill="#737373" />
</svg>
