<svg
xmlns="http://www.w3.org/2000/svg"
xmlns:xlink="http://www.w3.org/1999/xlink"
width="48"
height="48"
viewBox="0 0 48 48">
  <defs>
    <symbol id="Icon-theft">
        
  <title class="" style="">Icon</title>
  <path d="M32,12a4,4,0,1,0-4-4A4,4,0,0,0,32,12Zm0-6a2,2,0,1,1-2,2A2,2,0,0,1,32,6Z"  class="" style=""/>
  <path d="M30.707,31.293l-9-9a1,1,0,0,0-1.538.15c-0.017.025-1.77,2.541-4.169,2.541A3.7,3.7,0,0,1,12,21c0-3.516,3.659-5.825,9.371-5.984A7.671,7.671,0,0,1,23.571,13H22c-7.29,0-12,3.14-12,8a5.733,5.733,0,0,0,6,5.984,7.183,7.183,0,0,0,5.073-2.5l1.741,1.741L20.341,32H11v2H21a1,1,0,0,0,.919-0.606l2.418-5.642,4.533,4.533L25.951,42h2.093l2.914-9.713A1,1,0,0,0,30.707,31.293Z"  class="" style=""/>
  <path d="M37,17.861l-6.872,3.813,2.786-6.267A1,1,0,0,0,32,14H27a5.267,5.267,0,0,0-5,5c0,0.525,0,.666,5.311,5.724a1,1,0,0,0,1.175.15L37,20.144V17.861Zm-9.336,4.433c-1.589-1.528-3.108-3.024-3.642-3.606A3.341,3.341,0,0,1,27,16h3.461Z"  class="" style=""/>

    </symbol>
  </defs>
    <view id="default" viewBox="0 0 48 48"></view>
    <use data-variant="default" xlink:href="#Icon-theft" x="0" y="0" fill="#004346" />
    <view id="primary" viewBox="0 48 48 48"></view>
    <use data-variant="primary" xlink:href="#Icon-theft" x="0" y="48" fill="#FFCD05" />
    <view id="secondary" viewBox="0 96 48 48"></view>
    <use data-variant="secondary" xlink:href="#Icon-theft" x="0" y="96" fill="#478081" />
    <view id="dark" viewBox="0 144 48 48"></view>
    <use data-variant="dark" xlink:href="#Icon-theft" x="0" y="144" fill="#004346" />
    <view id="light" viewBox="0 192 48 48"></view>
    <use data-variant="light" xlink:href="#Icon-theft" x="0" y="192" fill="#FFFFFF" />
    <view id="correct" viewBox="0 240 48 48"></view>
    <use data-variant="correct" xlink:href="#Icon-theft" x="0" y="240" fill="#00928A" />
    <view id="error" viewBox="0 288 48 48"></view>
    <use data-variant="error" xlink:href="#Icon-theft" x="0" y="288" fill="#BD1903" />
    <view id="text" viewBox="0 336 48 48"></view>
    <use data-variant="text" xlink:href="#Icon-theft" x="0" y="336" fill="#000000" />
    <view id="neutral" viewBox="0 384 48 48"></view>
    <use data-variant="neutral" xlink:href="#Icon-theft" x="0" y="384" fill="#F5F3F1" />
    <view id="highlight" viewBox="0 432 48 48"></view>
    <use data-variant="highlight" xlink:href="#Icon-theft" x="0" y="432" fill="#FF6400" />
    <view id="border" viewBox="0 480 48 48"></view>
    <use data-variant="border" xlink:href="#Icon-theft" x="0" y="480" fill="#cdcbc3" />
    <view id="disabled" viewBox="0 528 48 48"></view>
    <use data-variant="disabled" xlink:href="#Icon-theft" x="0" y="528" fill="#737373" />
</svg>
