<svg
xmlns="http://www.w3.org/2000/svg"
xmlns:xlink="http://www.w3.org/1999/xlink"
width="48"
height="48"
viewBox="0 0 48 48">
  <defs>
    <symbol id="Icon-noSmoking">
        
  <title class="" style="">Icon</title>
  <g class="" style="">
    <path d="M36,24V22H7a1,1,0,0,0-1,1v5a1,1,0,0,0,1,1H36V27H17V24H36ZM15,27H8V24h7v3Z"  class="" style=""/>
    <rect x="40" y="22" width="2" height="7"  class="" style=""/>
    <rect x="37" y="22" width="2" height="7"  class="" style=""/>
    <path d="M42,21H40V20c0-3.442-1.122-4.467-2.542-5.766C35.837,12.752,34,11.073,34,6h2c0,4.192,1.3,5.381,2.807,6.758S42,15.677,42,20v1Z"  class="" style=""/>
    <path d="M39,21H37V20c0-2.088-.787-2.76-1.978-3.777C33.23,14.692,31,12.788,31,6h2c0,5.866,1.688,7.308,3.321,8.7A6.083,6.083,0,0,1,39,20v1Z"  class="" style=""/>
    <rect x="23.001" y="-1.455" width="2" height="50.912" transform="translate(-9.941 24.001) rotate(-45)"  class="" style=""/>
  </g>

    </symbol>
  </defs>
    <view id="default" viewBox="0 0 48 48"></view>
    <use data-variant="default" xlink:href="#Icon-noSmoking" x="0" y="0" fill="#004346" />
    <view id="primary" viewBox="0 48 48 48"></view>
    <use data-variant="primary" xlink:href="#Icon-noSmoking" x="0" y="48" fill="#FFCD05" />
    <view id="secondary" viewBox="0 96 48 48"></view>
    <use data-variant="secondary" xlink:href="#Icon-noSmoking" x="0" y="96" fill="#478081" />
    <view id="dark" viewBox="0 144 48 48"></view>
    <use data-variant="dark" xlink:href="#Icon-noSmoking" x="0" y="144" fill="#004346" />
    <view id="light" viewBox="0 192 48 48"></view>
    <use data-variant="light" xlink:href="#Icon-noSmoking" x="0" y="192" fill="#FFFFFF" />
    <view id="correct" viewBox="0 240 48 48"></view>
    <use data-variant="correct" xlink:href="#Icon-noSmoking" x="0" y="240" fill="#00928A" />
    <view id="error" viewBox="0 288 48 48"></view>
    <use data-variant="error" xlink:href="#Icon-noSmoking" x="0" y="288" fill="#BD1903" />
    <view id="text" viewBox="0 336 48 48"></view>
    <use data-variant="text" xlink:href="#Icon-noSmoking" x="0" y="336" fill="#000000" />
    <view id="neutral" viewBox="0 384 48 48"></view>
    <use data-variant="neutral" xlink:href="#Icon-noSmoking" x="0" y="384" fill="#F5F3F1" />
    <view id="highlight" viewBox="0 432 48 48"></view>
    <use data-variant="highlight" xlink:href="#Icon-noSmoking" x="0" y="432" fill="#FF6400" />
    <view id="border" viewBox="0 480 48 48"></view>
    <use data-variant="border" xlink:href="#Icon-noSmoking" x="0" y="480" fill="#cdcbc3" />
    <view id="disabled" viewBox="0 528 48 48"></view>
    <use data-variant="disabled" xlink:href="#Icon-noSmoking" x="0" y="528" fill="#737373" />
</svg>
