<svg
xmlns="http://www.w3.org/2000/svg"
xmlns:xlink="http://www.w3.org/1999/xlink"
width="48"
height="48"
viewBox="0 0 48 48">
  <defs>
    <symbol id="Icon-motorFire">
        
  <title class="" style="">Icon</title>
  <g class="" style="">
    <path d="M44,23H38.666l-3.974-9.53A4.279,4.279,0,0,0,31,11H20.968a19,19,0,0,0-8.6-7.929,1,1,0,0,0-1.144.286,0.991,0.991,0,0,0-.066,1.173c0.952,1.463.653,3.776,0.108,5.314a4.818,4.818,0,0,1-1.253,2.129A4.266,4.266,0,0,1,8.977,9.761a1,1,0,0,0-1.834-.3c-2.1,3.492-2.706,6.738-1.8,9.6A9.878,9.878,0,0,0,7.849,23H4v2H6V37.016a2.989,2.989,0,0,0,2,2.81V45h2V40H38v5h2V39.826a2.99,2.99,0,0,0,2-2.811V27H40V37.016A0.989,0.989,0,0,1,39,38H9a0.989,0.989,0,0,1-1-.984V25h3a1.024,1.024,0,0,0,.406-1.953,8.351,8.351,0,0,1-4.158-4.616,8.462,8.462,0,0,1,.6-5.994,2.565,2.565,0,0,0,2.173,1.527c0.938-.016,1.826-0.761,2.567-2.151a10.358,10.358,0,0,0,1.142-5.74c2.9,1.972,6.436,5.723,6.727,9.588a6.73,6.73,0,0,1-2.39,5.542,8.5,8.5,0,0,0-.288-3.019,5.768,5.768,0,0,0-3.459-4.17l-0.633,1.894a3.9,3.9,0,0,1,2.165,2.812,5.223,5.223,0,0,1-.61,4.577A1.041,1.041,0,0,0,16,25H44V23ZM19.106,23c2.954-3,3.5-5.4,3.342-7.443C22.383,14.692,22.176,13,21.88,13H31a2.274,2.274,0,0,1,1.846,1.238L36.5,23H19.106Z"  class="" style=""/>
    <path d="M14,29a2,2,0,1,1-2,2,2,2,0,0,1,2-2m0-2a4,4,0,1,0,4,4,4,4,0,0,0-4-4h0Z"  class="" style=""/>
    <path d="M34,29a2,2,0,1,1-2,2,2,2,0,0,1,2-2m0-2a4,4,0,1,0,4,4,4,4,0,0,0-4-4h0Z"  class="" style=""/>
  </g>

    </symbol>
  </defs>
    <view id="default" viewBox="0 0 48 48"></view>
    <use data-variant="default" xlink:href="#Icon-motorFire" x="0" y="0" fill="#004346" />
    <view id="primary" viewBox="0 48 48 48"></view>
    <use data-variant="primary" xlink:href="#Icon-motorFire" x="0" y="48" fill="#FFCD05" />
    <view id="secondary" viewBox="0 96 48 48"></view>
    <use data-variant="secondary" xlink:href="#Icon-motorFire" x="0" y="96" fill="#478081" />
    <view id="dark" viewBox="0 144 48 48"></view>
    <use data-variant="dark" xlink:href="#Icon-motorFire" x="0" y="144" fill="#004346" />
    <view id="light" viewBox="0 192 48 48"></view>
    <use data-variant="light" xlink:href="#Icon-motorFire" x="0" y="192" fill="#FFFFFF" />
    <view id="correct" viewBox="0 240 48 48"></view>
    <use data-variant="correct" xlink:href="#Icon-motorFire" x="0" y="240" fill="#00928A" />
    <view id="error" viewBox="0 288 48 48"></view>
    <use data-variant="error" xlink:href="#Icon-motorFire" x="0" y="288" fill="#BD1903" />
    <view id="text" viewBox="0 336 48 48"></view>
    <use data-variant="text" xlink:href="#Icon-motorFire" x="0" y="336" fill="#000000" />
    <view id="neutral" viewBox="0 384 48 48"></view>
    <use data-variant="neutral" xlink:href="#Icon-motorFire" x="0" y="384" fill="#F5F3F1" />
    <view id="highlight" viewBox="0 432 48 48"></view>
    <use data-variant="highlight" xlink:href="#Icon-motorFire" x="0" y="432" fill="#FF6400" />
    <view id="border" viewBox="0 480 48 48"></view>
    <use data-variant="border" xlink:href="#Icon-motorFire" x="0" y="480" fill="#cdcbc3" />
    <view id="disabled" viewBox="0 528 48 48"></view>
    <use data-variant="disabled" xlink:href="#Icon-motorFire" x="0" y="528" fill="#737373" />
</svg>
