<svg
xmlns="http://www.w3.org/2000/svg"
xmlns:xlink="http://www.w3.org/1999/xlink"
width="48"
height="48"
viewBox="0 0 48 48">
  <defs>
    <symbol id="Icon-petrol">
        
  <title class="" style="">Icon</title>
  <g class="" style="">
    <path d="M18,10a1,1,0,0,0-1,1v7a1,1,0,0,0,1,1H28a1,1,0,0,0,1-1V11a1,1,0,0,0-1-1H18Zm9,7H19V12h8v5Z"  class="" style=""/>
    <path d="M40.707,14.293l-4-4-1.414,1.414L39,15.414V29H37V23a1,1,0,0,0-1-1H33V7a1,1,0,0,0-1-1H14a1,1,0,0,0-1,1V40H11v2H35V40H15V8H31V38h2V24h2v6a1,1,0,0,0,1,1h4a1,1,0,0,0,1-1V15A1,1,0,0,0,40.707,14.293Z"  class="" style=""/>
  </g>

    </symbol>
  </defs>
    <view id="default" viewBox="0 0 48 48"></view>
    <use data-variant="default" xlink:href="#Icon-petrol" x="0" y="0" fill="#004346" />
    <view id="primary" viewBox="0 48 48 48"></view>
    <use data-variant="primary" xlink:href="#Icon-petrol" x="0" y="48" fill="#FFCD05" />
    <view id="secondary" viewBox="0 96 48 48"></view>
    <use data-variant="secondary" xlink:href="#Icon-petrol" x="0" y="96" fill="#478081" />
    <view id="dark" viewBox="0 144 48 48"></view>
    <use data-variant="dark" xlink:href="#Icon-petrol" x="0" y="144" fill="#004346" />
    <view id="light" viewBox="0 192 48 48"></view>
    <use data-variant="light" xlink:href="#Icon-petrol" x="0" y="192" fill="#FFFFFF" />
    <view id="correct" viewBox="0 240 48 48"></view>
    <use data-variant="correct" xlink:href="#Icon-petrol" x="0" y="240" fill="#00928A" />
    <view id="error" viewBox="0 288 48 48"></view>
    <use data-variant="error" xlink:href="#Icon-petrol" x="0" y="288" fill="#BD1903" />
    <view id="text" viewBox="0 336 48 48"></view>
    <use data-variant="text" xlink:href="#Icon-petrol" x="0" y="336" fill="#000000" />
    <view id="neutral" viewBox="0 384 48 48"></view>
    <use data-variant="neutral" xlink:href="#Icon-petrol" x="0" y="384" fill="#F5F3F1" />
    <view id="highlight" viewBox="0 432 48 48"></view>
    <use data-variant="highlight" xlink:href="#Icon-petrol" x="0" y="432" fill="#FF6400" />
    <view id="border" viewBox="0 480 48 48"></view>
    <use data-variant="border" xlink:href="#Icon-petrol" x="0" y="480" fill="#cdcbc3" />
    <view id="disabled" viewBox="0 528 48 48"></view>
    <use data-variant="disabled" xlink:href="#Icon-petrol" x="0" y="528" fill="#737373" />
</svg>
