<svg
xmlns="http://www.w3.org/2000/svg"
xmlns:xlink="http://www.w3.org/1999/xlink"
width="48"
height="48"
viewBox="0 0 48 48">
  <defs>
    <symbol id="Icon-marketplace">
        
  <title class="" style="">Icon</title>
  <g class="" style="">
    <path d="M38,21.91v4.18a5.613,5.613,0,0,1,2,0V21.91A5.582,5.582,0,0,1,38,21.91Z"  class="" style=""/>
    <path d="M28.742,36.338a5.981,5.981,0,0,1,.945,1.763l4.57-2.437a6.02,6.02,0,0,1-.944-1.764Z"  class="" style=""/>
    <path d="M13.742,35.663l4.57,2.438a6,6,0,0,1,.945-1.764L14.688,33.9A6.046,6.046,0,0,1,13.742,35.663Z"  class="" style=""/>
    <path d="M19.258,11.662A5.985,5.985,0,0,1,18.314,9.9l-4.571,2.438a6.014,6.014,0,0,1,.944,1.763Z"  class="" style=""/>
    <path d="M34.258,12.337L29.687,9.9a5.985,5.985,0,0,1-.944,1.763L33.314,14.1A6.014,6.014,0,0,1,34.258,12.337Z"  class="" style=""/>
    <path d="M34.258,19.662a5.985,5.985,0,0,1-.944-1.763l-4.571,2.439a6.005,6.005,0,0,1,.944,1.762Z"  class="" style=""/>
    <path d="M25,18.09V13.91a5.582,5.582,0,0,1-2,0V18.09A5.582,5.582,0,0,1,25,18.09Z"  class="" style=""/>
    <path d="M19.258,20.338L14.687,17.9a5.985,5.985,0,0,1-.944,1.763L18.314,22.1A6.005,6.005,0,0,1,19.258,20.338Z"  class="" style=""/>
    <path d="M28.742,27.663l4.57,2.438a6.028,6.028,0,0,1,.945-1.763L29.687,25.9A6.02,6.02,0,0,1,28.742,27.663Z"  class="" style=""/>
    <path d="M25,34.09V29.91a5.613,5.613,0,0,1-2,0v4.18A5.613,5.613,0,0,1,25,34.09Z"  class="" style=""/>
    <path d="M13.742,28.338a6.028,6.028,0,0,1,.945,1.763l4.57-2.437a6.02,6.02,0,0,1-.944-1.764Z"  class="" style=""/>
    <path d="M10,26.09V21.91a5.582,5.582,0,0,1-2,0v4.18A5.613,5.613,0,0,1,10,26.09Z"  class="" style=""/>
    <path d="M24,20a4,4,0,1,0,4,4A4,4,0,0,0,24,20Zm0,6a2,2,0,1,1,2-2A2,2,0,0,1,24,26Z"  class="" style=""/>
    <path d="M9,28a4,4,0,1,0,4,4A4,4,0,0,0,9,28Zm0,6a2,2,0,1,1,2-2A2,2,0,0,1,9,34Z"  class="" style=""/>
    <path d="M9,12a4,4,0,1,0,4,4A4,4,0,0,0,9,12Zm0,6a2,2,0,1,1,2-2A2,2,0,0,1,9,18Z"  class="" style=""/>
    <path d="M39,28a4,4,0,1,0,4,4A4,4,0,0,0,39,28Zm0,6a2,2,0,1,1,2-2A2,2,0,0,1,39,34Z"  class="" style=""/>
    <path d="M39,20a4,4,0,1,0-4-4A4,4,0,0,0,39,20Zm0-6a2,2,0,1,1-2,2A2,2,0,0,1,39,14Z"  class="" style=""/>
    <path d="M24,4a4,4,0,1,0,4,4A4,4,0,0,0,24,4Zm0,6a2,2,0,1,1,2-2A2,2,0,0,1,24,10Z"  class="" style=""/>
    <path d="M24,36a4,4,0,1,0,4,4A4,4,0,0,0,24,36Zm0,6a2,2,0,1,1,2-2A2,2,0,0,1,24,42Z"  class="" style=""/>
  </g>

    </symbol>
  </defs>
    <view id="default" viewBox="0 0 48 48"></view>
    <use data-variant="default" xlink:href="#Icon-marketplace" x="0" y="0" fill="#004346" />
    <view id="primary" viewBox="0 48 48 48"></view>
    <use data-variant="primary" xlink:href="#Icon-marketplace" x="0" y="48" fill="#FFCD05" />
    <view id="secondary" viewBox="0 96 48 48"></view>
    <use data-variant="secondary" xlink:href="#Icon-marketplace" x="0" y="96" fill="#478081" />
    <view id="dark" viewBox="0 144 48 48"></view>
    <use data-variant="dark" xlink:href="#Icon-marketplace" x="0" y="144" fill="#004346" />
    <view id="light" viewBox="0 192 48 48"></view>
    <use data-variant="light" xlink:href="#Icon-marketplace" x="0" y="192" fill="#FFFFFF" />
    <view id="correct" viewBox="0 240 48 48"></view>
    <use data-variant="correct" xlink:href="#Icon-marketplace" x="0" y="240" fill="#00928A" />
    <view id="error" viewBox="0 288 48 48"></view>
    <use data-variant="error" xlink:href="#Icon-marketplace" x="0" y="288" fill="#BD1903" />
    <view id="text" viewBox="0 336 48 48"></view>
    <use data-variant="text" xlink:href="#Icon-marketplace" x="0" y="336" fill="#000000" />
    <view id="neutral" viewBox="0 384 48 48"></view>
    <use data-variant="neutral" xlink:href="#Icon-marketplace" x="0" y="384" fill="#F5F3F1" />
    <view id="highlight" viewBox="0 432 48 48"></view>
    <use data-variant="highlight" xlink:href="#Icon-marketplace" x="0" y="432" fill="#FF6400" />
    <view id="border" viewBox="0 480 48 48"></view>
    <use data-variant="border" xlink:href="#Icon-marketplace" x="0" y="480" fill="#cdcbc3" />
    <view id="disabled" viewBox="0 528 48 48"></view>
    <use data-variant="disabled" xlink:href="#Icon-marketplace" x="0" y="528" fill="#737373" />
</svg>
