<svg width="383" height="81" viewBox="0 0 383 81" fill="none" xmlns="http://www.w3.org/2000/svg">
<g clip-path="url(#clip0_7785_141986)">
<path d="M2.19312 33.9688C2.19312 38.484 4.81964 40.4978 10.3638 41.7299L14.5946 42.6336C19.5634 43.7404 20.5483 44.8912 20.5483 47.3146C20.5483 50.2288 18.003 52.0363 13.4032 52.0363C8.60035 52.0363 6.13629 49.9818 5.84859 45.7543H1.37402C1.37402 52.2834 6.01444 55.9761 13.2814 55.9761C21.2456 55.9761 25.1075 51.9517 25.1075 46.7392C25.1075 42.0582 22.3151 39.8006 17.5935 38.775L13.1595 37.7495C8.06895 36.6393 6.63046 35.9827 6.63046 33.3968C6.63046 30.8921 8.51912 28.8816 12.7906 28.8816C17.8812 28.8816 19.4009 31.1798 19.7698 34.3005H24.2038C24.1632 27.9372 19.2351 24.8572 12.9971 24.8572C5.68274 24.8538 2.19312 29.0407 2.19312 33.9688ZM27.1146 25.6323V43.2462C27.1146 52.2394 31.3861 55.8914 38.8155 55.8914C46.3702 55.8914 50.5164 52.1547 50.5164 43.2462V25.6323H45.6695V43.8216C45.6695 49.6095 43.2055 51.8264 38.5684 51.8264C34.4222 51.8264 31.9175 49.4436 31.9175 43.8216V25.6323H27.1146ZM53.7623 25.6323V55.113H58.1963V32.202L72.3206 55.113H77.3706V25.6323H72.896V48.418L59.0594 25.6323H53.7623ZM105.826 34.7879C105.332 28.8748 100.529 24.935 93.5901 24.935C85.0099 24.935 79.8347 31.1764 79.8347 40.2508C79.8347 50.8042 85.6225 55.8948 93.2178 55.8948C100.894 55.8948 105.372 50.7196 105.988 44.5629H101.348C100.403 49.2405 97.8176 51.7858 93.5055 51.7858C88.618 51.7858 84.6782 48.5433 84.6782 40.7415C84.6782 32.6521 88.3336 29 93.5055 29C98.0206 29 100.322 31.1764 101.182 34.7913H105.826V34.7879ZM107.877 40.4538C107.877 50.5132 113.665 55.9727 122.082 55.9727C131.035 55.9727 136.454 49.6095 136.454 40.0003C136.454 29.3656 130.212 24.7692 122.123 24.7692C113.993 24.7725 107.877 30.2727 107.877 40.4538ZM112.68 40.6197C112.68 33.0244 116.623 28.9188 122.289 28.9188C127.505 28.9188 131.692 32.6555 131.692 40.0443C131.692 47.8866 127.874 51.8298 122.414 51.8298C116.416 51.8298 112.68 48.0525 112.68 40.6197ZM143.596 29.616H152.463C155.953 29.616 157.761 31.0105 157.761 34.2565C157.761 37.6209 155.953 38.9781 152.054 38.9781H143.596V29.616ZM138.915 25.6323V55.113H143.596V42.8367H151.766C155.665 42.8367 157.023 44.0281 157.145 47.3519L157.351 51.4981C157.432 53.2649 157.557 54.2905 157.886 55.113H162.936C162.279 53.9216 162.032 52.6489 161.951 50.063L161.87 46.7765C161.788 43.3681 160.925 41.889 158.214 40.7415C160.925 39.5095 162.526 37.1301 162.526 33.7217C162.526 28.8342 159.527 25.6323 152.836 25.6323H138.915ZM165.315 25.6323V55.113H170.037V43.2462H178.289C184.364 43.2462 187.526 39.8378 187.526 34.3783C187.526 28.6717 183.995 25.6323 178.451 25.6323H165.315ZM170.037 29.616H177.263C181.122 29.616 182.804 31.217 182.804 34.4189C182.804 37.7021 180.996 39.3064 177.263 39.3064H170.037V29.616Z" fill="#004346"/>
<path d="M344.322 1.77014C322.826 1.77014 305.398 19.1979 305.398 40.6941C305.398 62.1903 322.826 79.6181 344.322 79.6181C365.819 79.6181 383.246 62.1903 383.246 40.6941C383.246 19.1946 365.819 1.77014 344.322 1.77014ZM344.322 60.1561C333.573 60.1561 324.86 51.4439 324.86 40.6941C324.86 29.9444 333.573 21.2321 344.322 21.2321C355.072 21.2321 363.784 29.9444 363.784 40.6941C363.784 51.4406 355.072 60.1561 344.322 60.1561Z" fill="url(#paint0_radial_7785_141986)"/>
<path d="M237.3 25.6323H232.406L221.924 55.113H226.612L229.536 46.675H240.025L242.983 55.113H247.898L237.3 25.6323ZM230.903 42.7284L234.146 33.3697C234.366 32.7368 234.583 32.0903 234.762 31.5217C234.938 32.0869 235.151 32.7368 235.371 33.3697L238.648 42.7284H230.903Z" fill="#004346"/>
<path d="M249.259 25.6323V55.113H253.693V32.202L267.817 55.113H272.867V25.6323H268.392V48.4215L254.556 25.6323H249.259Z" fill="#004346"/>
<path d="M216.976 39.4216C219.497 38.2877 220.858 36.0945 220.858 33.1024C220.858 28.5669 217.202 25.6357 211.54 25.6357H199.998V55.1131H210.69C215.737 55.1131 221.748 53.5866 221.748 46.3129C221.748 43.2125 219.856 40.5758 216.976 39.4216ZM204.432 29.5823H211.357C213.517 29.5823 216.099 30.2525 216.099 33.4341C216.099 36.1655 214.353 37.5499 210.91 37.5499H204.432V29.5823ZM210.728 51.1665H204.432V41.5709H210.433C214.965 41.5709 216.986 42.9654 216.986 46.0895C216.986 49.6028 215.057 51.1665 210.728 51.1665Z" fill="#004346"/>
<path d="M299.18 55.1131H293.602L283.969 41.6217L280.469 45.4633L280.466 45.4667V55.1131H276.035V25.6357H280.466V39.249L280.469 39.2456L292.867 25.6357H298.601L287.144 38.1456L299.18 55.1131Z" fill="#004346"/>
</g>
<defs>
<radialGradient id="paint0_radial_7785_141986" cx="0" cy="0" r="1" gradientUnits="userSpaceOnUse" gradientTransform="translate(344.322 40.6928) scale(38.924 38.924)">
<stop stop-color="#FFCD05"/>
<stop offset="0.4927" stop-color="#FFCD05"/>
<stop offset="1" stop-color="#FFCD05" stop-opacity="0"/>
</radialGradient>
<clipPath id="clip0_7785_141986">
<rect width="383" height="81" fill="white"/>
</clipPath>
</defs>
</svg>
